<svg width="6" height="7" viewBox="0 0 6 7" fill="none" xmlns="http://www.w3.org/2000/svg">
<path d="M5.01647 3.69911C5.0133 3.12557 5.2779 2.69267 5.8135 2.37386C5.5138 1.95348 5.0611 1.72219 4.46333 1.67687C3.89743 1.63311 3.27896 2.00036 3.0526 2.00036C2.8135 2.00036 2.26514 1.69249 1.83475 1.69249C0.94527 1.70656 0 2.38793 0 3.77412C0 4.18358 0.0765143 4.60655 0.229543 5.04311C0.43358 5.61665 1.17003 7.02313 1.93836 6.99971C2.34006 6.99033 2.6238 6.71996 3.14665 6.71996C3.65357 6.71996 3.91657 6.99971 4.3645 6.99971C5.1392 6.98876 5.80553 5.71042 6 5.1353C4.96067 4.65552 5.01647 3.72879 5.01647 3.69911ZM4.11423 1.13302C4.5494 0.626674 4.50957 0.165655 4.4968 0C4.11263 0.021879 3.6679 0.256296 3.41447 0.545411C3.13549 0.854842 2.97131 1.23772 3.00638 1.66905C3.42243 1.70031 3.8018 1.49089 4.11423 1.13302Z" fill="#5E5E5E"/>
</svg>
