<svg width="32" height="32" viewBox="0 0 32 32" fill="none" xmlns="http://www.w3.org/2000/svg">
<path d="M1.75 16C1.75 8.73012 8.08037 2.75 16 2.75C23.9196 2.75 30.25 8.73012 30.25 16C30.25 23.2699 23.9196 29.25 16 29.25C8.08037 29.25 1.75 23.2699 1.75 16Z" stroke="#A2A2A2" stroke-width="1.5"/>
<path d="M15.4697 23.5303C15.7626 23.8232 16.2374 23.8232 16.5303 23.5303L21.3033 18.7574C21.5962 18.4645 21.5962 17.9896 21.3033 17.6967C21.0104 17.4038 20.5355 17.4038 20.2426 17.6967L16 21.9393L11.7574 17.6967C11.4645 17.4038 10.9896 17.4038 10.6967 17.6967C10.4038 17.9896 10.4038 18.4645 10.6967 18.7574L15.4697 23.5303ZM15.25 7L15.25 23H16.75L16.75 7H15.25Z" fill="#A1A1A1"/>
<path d="M14 21L10 17" stroke="#A1A1A1" stroke-width="1.5"/>
<path d="M18 21L22 17" stroke="#A1A1A1" stroke-width="1.5"/>
</svg>
