<svg width="32" height="32" viewBox="0 0 32 32" fill="none" xmlns="http://www.w3.org/2000/svg">
<path d="M30.25 16C30.25 23.2699 23.9196 29.25 16 29.25C8.08037 29.25 1.75 23.2699 1.75 16C1.75 8.73012 8.08037 2.75 16 2.75C23.9196 2.75 30.25 8.73012 30.25 16Z" stroke="#A2A2A2" stroke-width="1.5"/>
<path d="M16.5303 8.46967C16.2374 8.17678 15.7626 8.17678 15.4697 8.46967L10.6967 13.2426C10.4038 13.5355 10.4038 14.0104 10.6967 14.3033C10.9896 14.5962 11.4645 14.5962 11.7574 14.3033L16 10.0607L20.2426 14.3033C20.5355 14.5962 21.0104 14.5962 21.3033 14.3033C21.5962 14.0104 21.5962 13.5355 21.3033 13.2426L16.5303 8.46967ZM16.75 25V9H15.25L15.25 25H16.75Z" fill="#A1A1A1"/>
<path d="M18 11L22 15" stroke="#A1A1A1" stroke-width="1.5"/>
<path d="M14 11L10 15" stroke="#A1A1A1" stroke-width="1.5"/>
</svg>
